<svg xmlns="http://www.w3.org/2000/svg" xmlns:xlink="http://www.w3.org/1999/xlink" version="1.1" id="Layer_1" x="0px" y="0px" viewBox="0 0 100 100" enable-background="new 0 0 100 100" xml:space="preserve" height="100px" width="100px">
<path id="Hanger" d="M94,65c-2.6-2.6-40.4-24.8-40.8-25L53,39.9l0-3.8l0.1-0.1c0.5-0.5,1.1-0.9,1.7-1.4c2.7-2.2,6-4.9,6-9.9  c0-6.1-4.9-11-11-11c-6.3,0-11,4.5-11,10.5c0,0.9,0.3,1.7,0.7,2.3c0.6,0.8,1.5,1.1,2.8,1c1.9-0.2,2.2-2,2.2-3.9c0-0.2,0-0.4,0-0.5  c0.1-1.5,2.4-3.8,5.3-3.8c3,0,5.5,2.4,5.5,5.4c0,2.9-0.6,4.1-4.6,6.1c-1.9,0.9-2.9,1.9-2.9,4.3l0.1,4.8L47.6,40  C47.2,40.2,9.4,62.4,6.8,65c-1.4,1.4-2,5.2-0.7,8.3c0.8,1.9,2.5,4.1,6.4,4.1h75.8c3.9,0,5.6-2.2,6.4-4.1C96,70.2,95.4,66.4,94,65z   M85.8,71.6c-1.4,0-34.9,0-34.9,0s-33.5,0-34.9,0c-1.4,0-3.6-0.2-3.5-2.2c0.1-1.9,1.8-3.1,1.8-3.1l36.6-21.2l36.5,21.2  c0,0,1.7,1.2,1.9,3.1C89.4,71.3,87.2,71.6,85.8,71.6z"/>
</svg>