<?xml version="1.0" encoding="utf-8"?>
<!-- Generator: Adobe Illustrator 17.1.0, SVG Export Plug-In . SVG Version: 6.00 Build 0)  -->
<!DOCTYPE svg PUBLIC "-//W3C//DTD SVG 1.1//EN" "http://www.w3.org/Graphics/SVG/1.1/DTD/svg11.dtd">
<svg version="1.1" id="Home_svg" xmlns="http://www.w3.org/2000/svg" xmlns:xlink="http://www.w3.org/1999/xlink" x="0px" y="0px"
	 viewBox="0 0 100 100" enable-background="new 0 0 100 100" xml:space="preserve">
<rect x="-111" y="-72" fill="#EF8F06" width="280" height="229"/>
<path id="Home_Path" fill="#FFFFFF" d="M26.2,45.1L26.2,45.1v0.2v10.3v11.2c0,2.8,2.3,5.1,5.2,5.1h4h7.5V61.5c0-2.7,1.4-4.2,4.2-4.2
	h5c2.7,0,4.2,1.4,4.2,4.2V72h7.5h4c2.8,0,5.2-2.3,5.2-5.1V55.7V45.4v-0.2v-0.1c0-1.8,0-1.4,0-1.4v-2.9c0-1.9-0.8-3.5-2.4-4.8
	L53.7,24.8c-1.9-1.5-6.3-1.5-8.2,0L28.6,36.1c-1.6,1.3-2.4,2.9-2.4,4.8l0,3.5"/>
</svg>
